<svg width="52" height="52" viewBox="0 0 52 52" fill="none" xmlns="http://www.w3.org/2000/svg">
<path d="M2.4481 18.3475L26 1.23607L49.5519 18.3475L40.5559 46.0344H11.4441L2.4481 18.3475Z" stroke="#DD4F05" stroke-width="2"/>
<path fill-rule="evenodd" clip-rule="evenodd" d="M19.3333 22.6665C18.8731 22.6665 18.5 23.0396 18.5 23.4998V31.8332C18.5 32.2934 18.8731 32.6665 19.3333 32.6665H32.6666C33.1269 32.6665 33.5 32.2934 33.5 31.8332V23.4998C33.5 23.0396 33.1269 22.6665 32.6666 22.6665H19.3333ZM16.8333 23.4998C16.8333 22.1191 17.9526 20.9998 19.3333 20.9998H32.6666C34.0474 20.9998 35.1666 22.1191 35.1666 23.4998V31.8332C35.1666 33.2139 34.0474 34.3332 32.6666 34.3332H19.3333C17.9526 34.3332 16.8333 33.2139 16.8333 31.8332V23.4998Z" fill="#DD4F05"/>
<path fill-rule="evenodd" clip-rule="evenodd" d="M22.5655 18.3987C23.0344 17.9299 23.6703 17.6665 24.3333 17.6665H27.6666C28.3297 17.6665 28.9656 17.9299 29.4344 18.3987C29.9033 18.8676 30.1666 19.5035 30.1666 20.1665V33.4998C30.1666 33.9601 29.7935 34.3332 29.3333 34.3332C28.8731 34.3332 28.5 33.9601 28.5 33.4998V20.1665C28.5 19.9455 28.4122 19.7335 28.2559 19.5772C28.0996 19.421 27.8877 19.3332 27.6666 19.3332H24.3333C24.1123 19.3332 23.9003 19.421 23.7441 19.5772C23.5878 19.7335 23.5 19.9455 23.5 20.1665V33.4998C23.5 33.9601 23.1269 34.3332 22.6666 34.3332C22.2064 34.3332 21.8333 33.9601 21.8333 33.4998V20.1665C21.8333 19.5035 22.0967 18.8676 22.5655 18.3987Z" fill="#DD4F05"/>
</svg>
