<svg width="52" height="52" viewBox="0 0 52 52" fill="none" xmlns="http://www.w3.org/2000/svg">
<path d="M2.4481 18.3475L26 1.23607L49.5519 18.3475L40.5559 46.0344H11.4441L2.4481 18.3475Z" stroke="#DD4F05" stroke-width="2"/>
<path d="M28.25 28.25C27.8358 28.25 27.5 28.5858 27.5 29C27.5 29.4142 27.8358 29.75 28.25 29.75V28.25ZM32.625 29H33.375C33.375 28.5858 33.0392 28.25 32.625 28.25V29ZM31.875 33.375C31.875 33.7892 32.2108 34.125 32.625 34.125C33.0392 34.125 33.375 33.7892 33.375 33.375H31.875ZM28.25 29.75H32.625V28.25H28.25V29.75ZM31.875 29V33.375H33.375V29H31.875Z" fill="#DD4F05"/>
<path d="M20.0098 28.1223C20.5004 29.3366 21.3218 30.3889 22.3806 31.1596C23.4395 31.9303 24.6933 32.3885 25.9996 32.4822C27.3059 32.5758 28.6122 32.3011 29.7702 31.6893C30.9281 31.0775 31.8912 30.1531 32.55 29.0212" stroke="#DD4F05" stroke-width="1.5" stroke-linecap="round" stroke-linejoin="round"/>
<path d="M24.75 22.75C25.1642 22.75 25.5 22.4142 25.5 22C25.5 21.5858 25.1642 21.25 24.75 21.25V22.75ZM20.375 22H19.625C19.625 22.4142 19.9608 22.75 20.375 22.75V22ZM21.125 17.625C21.125 17.2108 20.7892 16.875 20.375 16.875C19.9608 16.875 19.625 17.2108 19.625 17.625H21.125ZM24.75 21.25H20.375V22.75H24.75V21.25ZM21.125 22V17.625H19.625V22H21.125Z" fill="#DD4F05"/>
<path d="M32.9904 22.8778C32.4998 21.6635 31.6784 20.6112 30.6196 19.8405C29.5607 19.0698 28.3069 18.6116 27.0006 18.5179C25.6943 18.4243 24.388 18.699 23.23 19.3108C22.0721 19.9226 21.109 20.847 20.4502 21.9789" stroke="#DD4F05" stroke-width="1.5" stroke-linecap="round" stroke-linejoin="round"/>
</svg>
