<svg width="52" height="52" viewBox="0 0 52 52" fill="none" xmlns="http://www.w3.org/2000/svg">
<path d="M32 35H20C19.4477 35 19 34.5523 19 34L19 18C19 17.4477 19.4477 17 20 17L27.5631 17C27.8416 17 28.1076 17.1162 28.2968 17.3206L32.7338 22.1125C32.9049 22.2973 33 22.5399 33 22.7919L33 34C33 34.5523 32.5523 35 32 35Z" stroke="#DD4F05" stroke-width="2" stroke-linecap="round" stroke-linejoin="round"/>
<path d="M33 23L28 23C27.4477 23 27 22.5523 27 22L27 17" stroke="#DD4F05" stroke-width="2" stroke-linecap="round" stroke-linejoin="round"/>
<path d="M2.4481 18.3475L26 1.23607L49.5519 18.3475L40.5559 46.0344H11.4441L2.4481 18.3475Z" stroke="#DD4F05" stroke-width="2"/>
</svg>
