<svg width="52" height="52" viewBox="0 0 52 52" fill="none" xmlns="http://www.w3.org/2000/svg">
<path d="M2.4481 18.3475L26 1.23607L49.5519 18.3475L40.5559 46.0344H11.4441L2.4481 18.3475Z" stroke="#DD4F05" stroke-width="2"/>
<path d="M29.875 33.5C29.875 33.0168 30.2668 32.625 30.75 32.625C31.2332 32.625 31.625 33.0168 31.625 33.5C31.625 33.9832 31.2332 34.375 30.75 34.375C30.2668 34.375 29.875 33.9832 29.875 33.5Z" stroke="#DD4F05" stroke-width="1.5" stroke-linecap="round" stroke-linejoin="round"/>
<path d="M21.125 33.5C21.125 33.0168 21.5168 32.625 22 32.625C22.4832 32.625 22.875 33.0168 22.875 33.5C22.875 33.9832 22.4832 34.375 22 34.375C21.5168 34.375 21.125 33.9832 21.125 33.5Z" stroke="#DD4F05" stroke-width="1.5" stroke-linecap="round" stroke-linejoin="round"/>
<path d="M17.625 18.625H18.2968C18.7187 18.625 19.0806 18.9262 19.1572 19.3411L21.125 30" stroke="#DD4F05" stroke-width="1.5" stroke-linecap="round" stroke-linejoin="round"/>
<path d="M19.8125 21.25H32.2751C32.8378 21.25 33.2542 21.7735 33.1277 22.3218L31.5123 29.3218C31.4207 29.7188 31.0671 30 30.6597 30H21.125" stroke="#DD4F05" stroke-width="1.5" stroke-linecap="round" stroke-linejoin="round"/>
</svg>
