<svg width="52" height="52" viewBox="0 0 52 52" fill="none" xmlns="http://www.w3.org/2000/svg">
<path d="M2.4481 18.3475L26 1.23607L49.5519 18.3475L40.5559 46.0344H11.4441L2.4481 18.3475Z" stroke="#DD4F05" stroke-width="2"/>
<path d="M31 30.2275C33.3304 30.7767 35 32.2583 35 33.9999" stroke="#DD4F05" stroke-width="2" stroke-linecap="round" stroke-linejoin="round"/>
<path d="M17 34C17 31.7909 19.6863 30 23 30C26.3137 30 29 31.7909 29 34" stroke="#DD4F05" stroke-width="2" stroke-linecap="round" stroke-linejoin="round"/>
<path d="M29 27C31.2091 27 33 25.2091 33 23C33 20.7909 31.2091 19 29 19" stroke="#DD4F05" stroke-width="2" stroke-linecap="round" stroke-linejoin="round"/>
<path d="M23 27C25.2091 27 27 25.2091 27 23C27 20.7909 25.2091 19 23 19C20.7909 19 19 20.7909 19 23C19 25.2091 20.7909 27 23 27Z" stroke="#DD4F05" stroke-width="2" stroke-linecap="round" stroke-linejoin="round"/>
</svg>
