<svg width="52" height="52" viewBox="0 0 52 52" fill="none" xmlns="http://www.w3.org/2000/svg">
<path d="M2.4481 18.3475L26 1.23607L49.5519 18.3475L40.5559 46.0344H11.4441L2.4481 18.3475Z" stroke="#DD4F05" stroke-width="2"/>
<path fill-rule="evenodd" clip-rule="evenodd" d="M19.7204 28.8869C20.5018 28.1055 21.5616 27.6665 22.6667 27.6665H29.3333C30.4384 27.6665 31.4982 28.1055 32.2796 28.8869C33.061 29.6683 33.5 30.7281 33.5 31.8332V33.4998C33.5 33.9601 33.1269 34.3332 32.6667 34.3332C32.2064 34.3332 31.8333 33.9601 31.8333 33.4998V31.8332C31.8333 31.1701 31.5699 30.5342 31.1011 30.0654C30.6323 29.5966 29.9964 29.3332 29.3333 29.3332H22.6667C22.0036 29.3332 21.3677 29.5966 20.8989 30.0654C20.4301 30.5342 20.1667 31.1701 20.1667 31.8332V33.4998C20.1667 33.9601 19.7936 34.3332 19.3333 34.3332C18.8731 34.3332 18.5 33.9601 18.5 33.4998V31.8332C18.5 30.7281 18.939 29.6683 19.7204 28.8869Z" fill="#DD4F05"/>
<path fill-rule="evenodd" clip-rule="evenodd" d="M26 19.3332C24.6193 19.3332 23.5 20.4525 23.5 21.8332C23.5 23.2139 24.6193 24.3332 26 24.3332C27.3807 24.3332 28.5 23.2139 28.5 21.8332C28.5 20.4525 27.3807 19.3332 26 19.3332ZM21.8333 21.8332C21.8333 19.532 23.6988 17.6665 26 17.6665C28.3012 17.6665 30.1666 19.532 30.1666 21.8332C30.1666 24.1344 28.3012 25.9998 26 25.9998C23.6988 25.9998 21.8333 24.1344 21.8333 21.8332Z" fill="#DD4F05"/>
</svg>
