<svg width="52" height="52" viewBox="0 0 52 52" fill="none" xmlns="http://www.w3.org/2000/svg">
<path d="M2.4481 18.3475L26 1.23607L49.5519 18.3475L40.5559 46.0344H11.4441L2.4481 18.3475Z" stroke="#DD4F05" stroke-width="2"/>
<path d="M26.7539 34.2847L27.0202 34.9859L27.0202 34.9859L26.7539 34.2847ZM26.2461 34.2847L25.9798 34.9859L25.9798 34.9859L26.2461 34.2847ZM20.375 19.375H32.625V17.875H20.375V19.375ZM32.75 19.5V24.8942H34.25V19.5H32.75ZM20.25 24.8942V19.5H18.75V24.8942H20.25ZM32.75 24.8942C32.75 30.8373 27.7078 33.1202 26.4876 33.5836L27.0202 34.9859C28.3124 34.4951 34.25 31.8689 34.25 24.8942H32.75ZM18.75 24.8942C18.75 31.8689 24.6876 34.4951 25.9798 34.9859L26.5124 33.5836C25.2922 33.1202 20.25 30.8373 20.25 24.8942H18.75ZM26.4876 33.5836C26.4869 33.5839 26.4878 33.5834 26.4904 33.583C26.4929 33.5825 26.4962 33.5821 26.5 33.5821C26.5038 33.5821 26.5071 33.5825 26.5096 33.583C26.5122 33.5834 26.5131 33.5839 26.5124 33.5836L25.9798 34.9859C26.3178 35.1142 26.6822 35.1142 27.0202 34.9859L26.4876 33.5836ZM32.625 19.375C32.694 19.375 32.75 19.431 32.75 19.5H34.25C34.25 18.6025 33.5225 17.875 32.625 17.875V19.375ZM20.375 17.875C19.4775 17.875 18.75 18.6025 18.75 19.5H20.25C20.25 19.431 20.306 19.375 20.375 19.375V17.875Z" fill="#DD4F05"/>
<path d="M29.6553 24.4053C29.9482 24.1124 29.9482 23.6376 29.6553 23.3447C29.3624 23.0518 28.8876 23.0518 28.5947 23.3447L29.6553 24.4053ZM25.625 27.375L25.0947 27.9053C25.3876 28.1982 25.8624 28.1982 26.1553 27.9053L25.625 27.375ZM24.4053 25.0947C24.1124 24.8018 23.6376 24.8018 23.3447 25.0947C23.0518 25.3876 23.0518 25.8624 23.3447 26.1553L24.4053 25.0947ZM28.5947 23.3447L25.0947 26.8447L26.1553 27.9053L29.6553 24.4053L28.5947 23.3447ZM26.1553 26.8447L24.4053 25.0947L23.3447 26.1553L25.0947 27.9053L26.1553 26.8447Z" fill="#DD4F05"/>
</svg>
